<svg xmlns="http://www.w3.org/2000/svg" viewBox="0 0 333.72 77.08"><title>flasher</title><g id="logog"><path id="path138" d="M32.86,2l-13,7.5,0,0-.05,0v0l-.48.28c-4.27,2.46-5.68,11.38-6.06,14.75L36.2,11.33c.39-.19,7.6-3.69,13.57-3.69h.14L40.13,2a8.15,8.15,0,0,0-7.27,0" transform="translate(-2.04 -1.15)" style="fill:#364d5c"/><path id="path142" d="M5.68,17.69A8.2,8.2,0,0,0,2,24V39.78c0,4.9,7,10.48,9.75,12.46V25.77c0-.44.6-8.55,3.65-13.72Z" transform="translate(-2.04 -1.15)" style="fill:#364d5c"/><path id="path146" d="M12.1,54.12h0C11.74,53.88,5,49.41,2,44.24V55.38a8.2,8.2,0,0,0,3.64,6.3l13.5,7.79c4.28,2.46,12.7-.77,15.81-2.12Z" transform="translate(-2.04 -1.15)" style="fill:#364d5c"/><path id="path150" d="M36.79,68c-.4.19-7.71,3.75-13.71,3.69l9.78,5.64a8.15,8.15,0,0,0,7.27,0l13.51-7.8c4.27-2.46,5.68-11.39,6.06-14.75Z" transform="translate(-2.04 -1.15)" style="fill:#364d5c"/><path id="path154" d="M61.2,27.13V53.6c0,.44-.6,8.55-3.65,13.72l9.77-5.64A8.2,8.2,0,0,0,71,55.38V39.59c0-4.94-7-10.5-9.75-12.46" transform="translate(-2.04 -1.15)" style="fill:#364d5c"/><path id="path158" d="M67.31,17.69,53.81,9.9C49.53,7.44,41.11,10.67,38,12L60.85,25.23v0a43.43,43.43,0,0,1,5.7,4.51A24,24,0,0,1,71,35.09V24a8.2,8.2,0,0,0-3.64-6.3" transform="translate(-2.04 -1.15)" style="fill:#364d5c"/></g><g id="flasher"><path d="M143.28,23.83h20.64v5.63H149.84v7.4h13.24v5.63H149.84V55.25h-6.56Z" transform="translate(-2.04 -1.15)" style="fill:#364d5c"/><path d="M168,23.83h6.55V49.62h14.88l-.71,5.63H168Z" transform="translate(-2.04 -1.15)" style="fill:#364d5c"/><path d="M203.57,23.83h6.25l11.79,31.42h-7L212.07,48h-11l-2.51,7.26h-6.78Zm6.78,18.75-3.83-11.27-3.78,11.27Z" transform="translate(-2.04 -1.15)" style="fill:#364d5c"/><path d="M229.05,45a5.69,5.69,0,0,0,1.87,4.22,7.65,7.65,0,0,0,4.86,1.32,8.84,8.84,0,0,0,2.6-.33,4.91,4.91,0,0,0,1.71-.88A3.15,3.15,0,0,0,241,48a4.52,4.52,0,0,0,.29-1.62,3.49,3.49,0,0,0-.93-2.32A6,6,0,0,0,237,42.53l-4.09-.74a25,25,0,0,1-4.27-1.15,9.9,9.9,0,0,1-3.1-1.83,7.28,7.28,0,0,1-1.91-2.75,10.24,10.24,0,0,1-.66-3.87,8.44,8.44,0,0,1,.9-4,8.19,8.19,0,0,1,2.51-2.86,11.63,11.63,0,0,1,3.85-1.73,19,19,0,0,1,4.93-.6,18,18,0,0,1,5.72.79,10.53,10.53,0,0,1,3.69,2.09,8.1,8.1,0,0,1,2.09,3,13.59,13.59,0,0,1,.9,3.56l-6.2.79a6.15,6.15,0,0,0-1.87-3.74,6.52,6.52,0,0,0-4.2-1.14,11,11,0,0,0-2.75.28,5.9,5.9,0,0,0-1.74.75,2.53,2.53,0,0,0-.92,1.08,3.16,3.16,0,0,0-.27,1.28,3.36,3.36,0,0,0,1,2.64A7.4,7.4,0,0,0,234,35.8l4.31.84c3.4.67,5.9,1.76,7.48,3.28a8.6,8.6,0,0,1,2.38,6.53,9.28,9.28,0,0,1-.77,3.8,8.55,8.55,0,0,1-2.29,3,10.8,10.8,0,0,1-3.81,2,17.9,17.9,0,0,1-5.37.72q-6.42,0-9.83-2.75c-2.27-1.83-3.5-4.6-3.67-8.29Z" transform="translate(-2.04 -1.15)" style="fill:#364d5c"/><path d="M252.77,23.83h6.55V36h12.45V23.83h6.56V55.25h-6.56V42.05H259.32v13.2h-6.55Z" transform="translate(-2.04 -1.15)" style="fill:#364d5c"/><path d="M283.75,23.83h21.43v5.59H290.31v6.87h14v5.63h-14v7.74h15.8l-.66,5.59h-21.7Z" transform="translate(-2.04 -1.15)" style="fill:#364d5c"/><path d="M310.77,23.83H321.9a18.38,18.38,0,0,1,6.09.86,9.77,9.77,0,0,1,3.77,2.25A7.63,7.63,0,0,1,333.65,30a11.11,11.11,0,0,1,.53,3.32,10.8,10.8,0,0,1-1.1,5.1,8.77,8.77,0,0,1-3.7,3.48l6.38,13.33h-7.08L323.4,43.46h-6.16V55.25h-6.47ZM322.34,38a8.31,8.31,0,0,0,2.55-.33,4,4,0,0,0,1.61-.92,3.24,3.24,0,0,0,.81-1.43,7.17,7.17,0,0,0,.22-1.85,5.12,5.12,0,0,0-.26-1.61,3.45,3.45,0,0,0-.9-1.36,4.25,4.25,0,0,0-1.76-.92,9.93,9.93,0,0,0-2.84-.33h-4.53V38Z" transform="translate(-2.04 -1.15)" style="fill:#364d5c"/></g><g id="re"><path d="M87.87,23.76H98.21a17.77,17.77,0,0,1,5.79.79,9.81,9.81,0,0,1,3.55,2.06,6.58,6.58,0,0,1,1.79,2.85,10.8,10.8,0,0,1,.49,3.22,9.85,9.85,0,0,1-1.26,5.13,8.28,8.28,0,0,1-4.13,3.31l6.63,14.19h-4.56l-6-13.21a11.44,11.44,0,0,1-1.24.11l-1.19,0H91.89V55.31h-4Zm10.74,15a12.19,12.19,0,0,0,3.49-.42,5.32,5.32,0,0,0,2.16-1.19,4.23,4.23,0,0,0,1.11-1.88,9.45,9.45,0,0,0,.31-2.48,7,7,0,0,0-.36-2.34,3.88,3.88,0,0,0-1.21-1.74,5.77,5.77,0,0,0-2.32-1.11,15.37,15.37,0,0,0-3.72-.37H91.89V38.74Z" transform="translate(-2.04 -1.15)" style="fill:#364d5c"/><path d="M115.79,23.76h20.42v3.58H119.86v9.9h15.46v3.62H119.86V51.73h17.19l-.67,3.58H115.79Z" transform="translate(-2.04 -1.15)" style="fill:#364d5c"/></g></svg>