<svg xmlns="http://www.w3.org/2000/svg"
  viewBox="0 0 301.68 77.08" height="30px">
  <defs>
    <style>.cls-1{fill:#334d5c;}</style>
  </defs>
  <title>logo_white_re_swarm</title>
  <g id="logog">
    <path id="path138" class="cls-1" d="M32.86,2l-13,7.5,0,0-.05,0v0l-.48.28c-4.27,2.46-5.68,11.38-6.06,14.75L36.2,11.33c.39-.19,7.6-3.69,13.57-3.69h.14L40.13,2a8.15,8.15,0,0,0-7.27,0" transform="translate(-2.04 -1.15)"></path><path id="path142" class="cls-1" d="M5.68,17.69A8.2,8.2,0,0,0,2,24V39.78c0,4.9,7,10.48,9.75,12.46V25.77c0-.44.6-8.55,3.65-13.72Z" transform="translate(-2.04 -1.15)"></path><path id="path146" class="cls-1" d="M12.1,54.12h0C11.74,53.88,5,49.41,2,44.24V55.38a8.2,8.2,0,0,0,3.64,6.3l13.5,7.79c4.28,2.46,12.7-.77,15.81-2.12Z" transform="translate(-2.04 -1.15)">
    </path>
    <path id="path150" class="cls-1" d="M36.79,68c-.4.19-7.71,3.75-13.71,3.69l9.78,5.64a8.15,8.15,0,0,0,7.27,0l13.51-7.8c4.27-2.46,5.68-11.39,6.06-14.75Z" transform="translate(-2.04 -1.15)">
    </path>
    <path id="path154" class="cls-1" d="M61.2,27.13V53.6c0,.44-.6,8.55-3.65,13.72l9.77-5.64A8.2,8.2,0,0,0,71,55.38V39.59c0-4.94-7-10.5-9.75-12.46" transform="translate(-2.04 -1.15)">
    </path>
    <path id="path158" class="cls-1" d="M67.31,17.69,53.81,9.9C49.53,7.44,41.11,10.67,38,12L60.85,25.23v0a43.43,43.43,0,0,1,5.7,4.51A24,24,0,0,1,71,35.09V24a8.2,8.2,0,0,0-3.64-6.3" transform="translate(-2.04 -1.15)">
    </path>
  </g>
  <g id="re">
    <path class="cls-1" d="M87.87,23.76H98.21a17.77,17.77,0,0,1,5.79.79,9.81,9.81,0,0,1,3.55,2.06,6.58,6.58,0,0,1,1.79,2.85,10.8,10.8,0,0,1,.49,3.22,9.85,9.85,0,0,1-1.26,5.13,8.28,8.28,0,0,1-4.13,3.31l6.63,14.19h-4.56l-6-13.21a11.44,11.44,0,0,1-1.24.11l-1.19,0H91.89V55.31h-4Zm10.74,15a12.19,12.19,0,0,0,3.49-.42,5.32,5.32,0,0,0,2.16-1.19,4.23,4.23,0,0,0,1.11-1.88,9.45,9.45,0,0,0,.31-2.48,7,7,0,0,0-.36-2.34,3.88,3.88,0,0,0-1.21-1.74,5.77,5.77,0,0,0-2.32-1.11,15.37,15.37,0,0,0-3.72-.37H91.89V38.74Z" transform="translate(-2.04 -1.15)">
    </path>
    <path class="cls-1" d="M115.79,23.76h20.42v3.58H119.86v9.9h15.46v3.62H119.86V51.73h17.19l-.67,3.58H115.79Z" transform="translate(-2.04 -1.15)">
    </path>
  </g>
  <g id="swarm">
    <path class="cls-1" d="M149.09,45.08A5.66,5.66,0,0,0,151,49.34a7.73,7.73,0,0,0,4.91,1.34,8.59,8.59,0,0,0,2.62-.34,4.93,4.93,0,0,0,1.73-.88,3.21,3.21,0,0,0,1-1.31,4.65,4.65,0,0,0,.29-1.65,3.55,3.55,0,0,0-.94-2.33,6,6,0,0,0-3.42-1.58L153,41.84a24,24,0,0,1-4.3-1.16,9.83,9.83,0,0,1-3.14-1.84,7.48,7.48,0,0,1-1.93-2.77,10.49,10.49,0,0,1-.66-3.91,8.46,8.46,0,0,1,.91-4,8.16,8.16,0,0,1,2.53-2.89,11.82,11.82,0,0,1,3.88-1.75,19.42,19.42,0,0,1,5-.6,17.91,17.91,0,0,1,5.77.8,10.51,10.51,0,0,1,3.73,2.11,8.22,8.22,0,0,1,2.11,3,14.31,14.31,0,0,1,.91,3.6l-6.26.8a6.17,6.17,0,0,0-1.89-3.78,6.54,6.54,0,0,0-4.24-1.15,10.68,10.68,0,0,0-2.77.29,5.55,5.55,0,0,0-1.76.75,2.65,2.65,0,0,0-.93,1.09,3.17,3.17,0,0,0-.27,1.29,3.39,3.39,0,0,0,1,2.66,7.42,7.42,0,0,0,3.4,1.38l4.35.84c3.44.68,6,1.79,7.55,3.31a8.7,8.7,0,0,1,2.4,6.6,9.35,9.35,0,0,1-.78,3.84,8.56,8.56,0,0,1-2.31,3.06,10.81,10.81,0,0,1-3.84,2,18.23,18.23,0,0,1-5.42.73q-6.48,0-9.92-2.78t-3.71-8.37Z" transform="translate(-2.04 -1.15)">
    </path>
    <path class="cls-1" d="M169.78,23.72h7.46l5.11,22,5.2-21.85h7L200,45.75l4.8-22h7.1l-8.61,31.71h-6.44L190.92,32l-5.73,23.45h-6.26Z" transform="translate(-2.04 -1.15)">
    </path>
    <path class="cls-1" d="M221.12,23.72h6.31l11.9,31.71h-7.11l-2.53-7.33h-11.1l-2.53,7.33h-6.84ZM228,42.64l-3.87-11.37-3.81,11.37Z" transform="translate(-2.04 -1.15)">
    </path>
    <path class="cls-1" d="M243,23.72h11.24a18.4,18.4,0,0,1,6.15.87,9.92,9.92,0,0,1,3.8,2.26A7.67,7.67,0,0,1,266.11,30a11.41,11.41,0,0,1,.53,3.35,10.84,10.84,0,0,1-1.11,5.15A8.67,8.67,0,0,1,261.8,42l6.44,13.46h-7.15l-5.33-11.9h-6.22v11.9H243ZM254.69,38a8.52,8.52,0,0,0,2.58-.33,4.1,4.1,0,0,0,1.62-.94,3.14,3.14,0,0,0,.82-1.44,7.19,7.19,0,0,0,.22-1.86,4.93,4.93,0,0,0-.26-1.63,3.4,3.4,0,0,0-.91-1.37,4.34,4.34,0,0,0-1.78-.93,10,10,0,0,0-2.86-.34h-4.58V38Z" transform="translate(-2.04 -1.15)">
    </path>
    <path class="cls-1" d="M272,23.72H280l7.91,23.67L296,23.72h7.72V55.43h-6.08V34.29L290.4,55.43h-5.15L278,34.33v21.1h-6Z" transform="translate(-2.04 -1.15)">
    </path>
  </g>
</svg>
